<mxfile host="app.diagrams.net" agent="Mozilla/5.0 (Windows NT 10.0; Win64; x64) AppleWebKit/537.36 (KHTML, like Gecko) Chrome/133.0.0.0 Safari/537.36" version="26.0.16">
  <diagram name="Halaman-1" id="Xaii_9fsHeGR6TXIPqu4">
    <?xml version="1.0" encoding="UTF-8"?>
      <mxGraphModel dx="1181" dy="730" grid="1" gridSize="10" guides="1" tooltips="1" connect="1" arrows="1" fold="1" page="1" pageScale="1" pageWidth="827" pageHeight="1169" math="0" shadow="0">
        <root>
          <mxCell id="0"/>
          <mxCell id="1" parent="0"/>
          
          <!-- Users Entity -->
          <mxCell id="2" value="Users" style="swimlane" vertex="1" parent="1">
            <mxGeometry x="20" y="20" width="220" height="250" as="geometry"/>
          </mxCell>
          <mxCell id="3" value="user_id (PK)" vertex="1" parent="2">
            <mxGeometry width="220" height="30" as="geometry"/>
          </mxCell>
          <mxCell id="4" value="email" vertex="1" parent="2">
            <mxGeometry width="220" height="30" as="geometry"/>
          </mxCell>
          <mxCell id="5" value="phone_number" vertex="1" parent="2">
            <mxGeometry width="220" height="30" as="geometry"/>
          </mxCell>
          <mxCell id="6" value="password_hash" vertex="1" parent="2">
            <mxGeometry width="220" height="30" as="geometry"/>
          </mxCell>
          <mxCell id="7" value="name" vertex="1" parent="2">
            <mxGeometry width="220" height="30" as="geometry"/>
          </mxCell>
          <mxCell id="8" value="profile_picture_url" vertex="1" parent="2">
            <mxGeometry width="220" height="30" as="geometry"/>
          </mxCell>
          <mxCell id="9" value="role" vertex="1" parent="2">
            <mxGeometry width="220" height="30" as="geometry"/>
          </mxCell>
          <mxCell id="10" value="created_at" vertex="1" parent="2">
            <mxGeometry width="220" height="30" as="geometry"/>
          </mxCell>
          <mxCell id="11" value="updated_at" vertex="1" parent="2">
            <mxGeometry width="220" height="30" as="geometry"/>
          </mxCell>
          
          <!-- Campaigns Entity -->
          <mxCell id="12" value="Campaigns" style="swimlane" vertex="1" parent="1">
            <mxGeometry x="260" y="20" width="220" height="320" as="geometry"/>
          </mxCell>
          <mxCell id="13" value="campaign_id (PK)" vertex="1" parent="12">
            <mxGeometry width="220" height="30" as="geometry"/>
          </mxCell>
          <mxCell id="14" value="creator_id (FK)" vertex="1" parent="12">
            <mxGeometry width="220" height="30" as="geometry"/>
          </mxCell>
          <mxCell id="15" value="title" vertex="1" parent="12">
            <mxGeometry width="220" height="30" as="geometry"/>
          </mxCell>
          <mxCell id="16" value="description" vertex="1" parent="12">
            <mxGeometry width="220" height="30" as="geometry"/>
          </mxCell>
          <mxCell id="17" value="target_amount" vertex="1" parent="12">
            <mxGeometry width="220" height="30" as="geometry"/>
          </mxCell>
          <mxCell id="18" value="current_amount" vertex="1" parent="12">
            <mxGeometry width="220" height="30" as="geometry"/>
          </mxCell>
          <mxCell id="19" value="status" vertex="1" parent="12">
            <mxGeometry width="220" height="30" as="geometry"/>
          </mxCell>
          <mxCell id="20" value="verified_by (FK)" vertex="1" parent="12">
            <mxGeometry width="220" height="30" as="geometry"/>
          </mxCell>
          <mxCell id="21" value="cancelled_by (FK)" vertex="1" parent="12">
            <mxGeometry width="220" height="30" as="geometry"/>
          </mxCell>
          <mxCell id="22" value="created_at" vertex="1" parent="12">
            <mxGeometry width="220" height="30" as="geometry"/>
          </mxCell>
          <mxCell id="23" value="deadline" vertex="1" parent="12">
            <mxGeometry width="220" height="30" as="geometry"/>
          </mxCell>
          <mxCell id="24" value="verified_at" vertex="1" parent="12">
            <mxGeometry width="220" height="30" as="geometry"/>
          </mxCell>
          <mxCell id="25" value="cancelled_at" vertex="1" parent="12">
            <mxGeometry width="220" height="30" as="geometry"/>
          </mxCell>
          
          <!-- Donations Entity -->
          <mxCell id="26" value="Donations" style="swimlane" vertex="1" parent="1">
            <mxGeometry x="500" y="20" width="220" height="250" as="geometry"/>
          </mxCell>
          <mxCell id="27" value="donation_id (PK)" vertex="1" parent="26">
            <mxGeometry width="220" height="30" as="geometry"/>
          </mxCell>
          <mxCell id="28" value="donor_id (FK)" vertex="1" parent="26">
            <mxGeometry width="220" height="30" as="geometry"/>
          </mxCell>
          <mxCell id="29" value="campaign_id (FK)" vertex="1" parent="26">
            <mxGeometry width="220" height="30" as="geometry"/>
          </mxCell>
          <mxCell id="30" value="amount" vertex="1" parent="26">
            <mxGeometry width="220" height="30" as="geometry"/>
          </mxCell>
          <mxCell id="31" value="status" vertex="1" parent="26">
            <mxGeometry width="220" height="30" as="geometry"/>
          </mxCell>
          <mxCell id="32" value="donated_at" vertex="1" parent="26">
            <mxGeometry width="220" height="30" as="geometry"/>
          </mxCell>
          
        </root>
      </mxGraphModel>

  </diagram>
</mxfile>
